<?xml version="1.0" standalone="no"?>
<!DOCTYPE svg PUBLIC "-//W3C//DTD SVG 20010904//EN"
 "http://www.w3.org/TR/2001/REC-SVG-20010904/DTD/svg10.dtd">
<svg version="1.0" xmlns="http://www.w3.org/2000/svg"
 width="260.000000pt" height="260.000000pt" viewBox="0 0 260.000000 260.000000"
 preserveAspectRatio="xMidYMid meet">
<metadata>
Created by potrace 1.11, written by Peter Selinger 2001-2013
</metadata>
<g transform="translate(0.000000,260.000000) scale(0.100000,-0.100000)"
fill="#000000" stroke="none">
<path d="M84 2049 c-11 -6 -28 -23 -37 -39 -15 -25 -17 -91 -17 -714 0 -510 3
-692 12 -711 26 -58 -37 -55 1263 -55 1099 0 1199 1 1225 17 16 9 33 27 39 40
15 33 15 1383 0 1416 -6 13 -23 31 -39 40 -26 16 -126 17 -1227 16 -784 0
-1205 -4 -1219 -10z"/>
</g>
</svg>
